<svg id="visual" viewBox="0 0 540 960" width="540" height="960" xmlns="http://www.w3.org/2000/svg" xmlns:xlink="http://www.w3.org/1999/xlink" version="1.1"><rect x="0" y="0" width="540" height="960" fill="#241f1f"></rect><path d="M0 755L11.3 733.3C22.7 711.7 45.3 668.3 67.8 672.5C90.3 676.7 112.7 728.3 135.2 724.7C157.7 721 180.3 662 202.8 630.8C225.3 599.7 247.7 596.3 270.2 616.8C292.7 637.3 315.3 681.7 337.8 703.3C360.3 725 382.7 724 405.2 719.3C427.7 714.7 450.3 706.3 472.8 686.7C495.3 667 517.7 636 528.8 620.5L540 605L540 961L528.8 961C517.7 961 495.3 961 472.8 961C450.3 961 427.7 961 405.2 961C382.7 961 360.3 961 337.8 961C315.3 961 292.7 961 270.2 961C247.7 961 225.3 961 202.8 961C180.3 961 157.7 961 135.2 961C112.7 961 90.3 961 67.8 961C45.3 961 22.7 961 11.3 961L0 961Z" fill="#FE0000" stroke-linecap="round" stroke-linejoin="miter"></path></svg>