<svg id="visual" viewBox="0 0 675 900" width="675" height="900" xmlns="http://www.w3.org/2000/svg" xmlns:xlink="http://www.w3.org/1999/xlink" version="1.1"><rect x="0" y="0" width="675" height="900" fill="#241f1f"></rect><path d="M0 707L14 686.8C28 666.7 56 626.3 84.2 630.3C112.3 634.3 140.7 682.7 168.8 679.3C197 676 225 621 253.2 591.8C281.3 562.7 309.7 559.3 337.8 578.3C366 597.3 394 638.7 422 659C450 679.3 478 678.7 506.2 674.3C534.3 670 562.7 662 590.8 643.5C619 625 647 596 661 581.5L675 567L675 901L661 901C647 901 619 901 590.8 901C562.7 901 534.3 901 506.2 901C478 901 450 901 422 901C394 901 366 901 337.8 901C309.7 901 281.3 901 253.2 901C225 901 197 901 168.8 901C140.7 901 112.3 901 84.2 901C56 901 28 901 14 901L0 901Z" fill="#FE0000" stroke-linecap="round" stroke-linejoin="miter"></path></svg>